<svg xmlns="http://www.w3.org/2000/svg" data-name="Layer 1" viewBox="0 0 283.46 283.46" width="256" height="256"><path fill="#fcaf32" d="M138.56 118.74v19.5a39.79 39.79 0 01-4.59-1.53 20.72 20.72 0 01-3.68-1.91 8.1 8.1 0 01-2.48-2.54 6.47 6.47 0 01-.91-3.48 8.6 8.6 0 013.25-7A14.47 14.47 0 01138.56 118.74zM156.43 159.36a10.33 10.33 0 01-.62 3.49 9.65 9.65 0 01-2 3.3 11.79 11.79 0 01-3.69 2.63 17.77 17.77 0 01-5.73 1.48v-21.7q2.49.76 4.68 1.67a17.08 17.08 0 013.83 2.16 9.47 9.47 0 012.58 3A8.2 8.2 0 01156.43 159.36z" class="colorfcaf32 svgShape"></path><path fill="#fcaf32" d="M215.94,152.34l-3.83-35.07a12.27,12.27,0,0,0-2.67-6.43L187.26,83.41a12.37,12.37,0,0,0-5.72-4L148.05,68.36a12.4,12.4,0,0,0-7-.24L106.92,76.9a12.41,12.41,0,0,0-6,3.56l-24,25.86a12.32,12.32,0,0,0-3.1,6.23l-6.21,34.73a12.33,12.33,0,0,0,.75,6.92l13.56,32.57a12.32,12.32,0,0,0,4.37,5.41l29,20.08a12.41,12.41,0,0,0,6.61,2.18l35.26,1.21a12.27,12.27,0,0,0,6.74-1.74l30.31-18a12.33,12.33,0,0,0,4.74-5.1l15.74-31.57A12.38,12.38,0,0,0,215.94,152.34ZM163.55,165.1a16,16,0,0,1-3.53,5.73,20.14,20.14,0,0,1-6.26,4.35,26.61,26.61,0,0,1-9.37,2.15v6.31a2.77,2.77,0,0,1-2.77,2.77,3.06,3.06,0,0,1-2.2-.81,2.6,2.6,0,0,1-.86-2v-6.31a39.29,39.29,0,0,1-5.88-.81,33.47,33.47,0,0,1-5.3-1.62,27.78,27.78,0,0,1-4.64-2.39,32.82,32.82,0,0,1-4-3,3.34,3.34,0,0,1-1-1.34,4.21,4.21,0,0,1,.71-4.26,3.18,3.18,0,0,1,2.63-1.29,3.6,3.6,0,0,1,2.3.86,31.64,31.64,0,0,0,6.69,4.4,24.16,24.16,0,0,0,8.41,2.39V146.94q-3.63-1-7.22-2.2a26.42,26.42,0,0,1-6.4-3.2,15.19,15.19,0,0,1-4.54-4.93,14.39,14.39,0,0,1-1.72-7.36,15.63,15.63,0,0,1,1.48-6.83,16.65,16.65,0,0,1,4.11-5.4,20.25,20.25,0,0,1,6.31-3.68,27.81,27.81,0,0,1,8-1.67v-6.6a2.62,2.62,0,0,1,.86-2,3.06,3.06,0,0,1,2.2-.81,2.77,2.77,0,0,1,2.77,2.77v6.69c1.66.19,3.23.45,4.73.77a27.12,27.12,0,0,1,4.3,1.29,26.6,26.6,0,0,1,4,2,24.18,24.18,0,0,1,3.63,2.67,3.28,3.28,0,0,1,1.24,2.77,4,4,0,0,1-.28,1.49,3.86,3.86,0,0,1-.81,1.24,4.63,4.63,0,0,1-1.2.86,3.19,3.19,0,0,1-1.43.33,3.29,3.29,0,0,1-2.3-.86,21.08,21.08,0,0,0-5.68-3.58,26.25,26.25,0,0,0-6.17-1.67v20.74q3.74,1,7.36,2.39a26.27,26.27,0,0,1,6.5,3.44,16.31,16.31,0,0,1,4.64,5.26,15.91,15.91,0,0,1,1.76,7.83A19.16,19.16,0,0,1,163.55,165.1Z" class="colorfcaf32 svgShape"></path></svg>